<svg xmlns="http://www.w3.org/2000/svg" viewBox="0 0 69.72 69.67"><title>tegalo</title><g id="Capa_2" data-name="Capa 2"><g id="Capa_2-2" data-name="Capa 2"><path d="M68.64,13.93H63a5.93,5.93,0,0,0,.72-5.47L62,3.84a5.88,5.88,0,0,0-8-3.27L40.3,7a4.07,4.07,0,0,0-2.38-.76H31.8A4.12,4.12,0,0,0,29.41,7L15.8.57a5.88,5.88,0,0,0-8,3.27L6,8.46a5.93,5.93,0,0,0,.72,5.47H1.08A1.08,1.08,0,0,0,0,15v7.74a1.08,1.08,0,1,0,2.15,0V16.08H9.63l.36.12,9,2.48a73.64,73.64,0,0,0-5.29,9.67H2.15V27.06a1.08,1.08,0,1,0-2.15,0v2.36A1.08,1.08,0,0,0,1.08,30.5H4.91V68.59A1.08,1.08,0,0,0,6,69.67H63.73a1.08,1.08,0,0,0,1.08-1.08V62.35a1.08,1.08,0,0,0-2.16,0v5.17H41.31V31.16A57.64,57.64,0,0,1,47.38,49.7a1,1,0,0,0,.79.88.84.84,0,0,0,.27,0,1.1,1.1,0,0,0,.86-.43,59.85,59.85,0,0,0,4.28-6.54,59.93,59.93,0,0,1,6.29,4.92,1.07,1.07,0,0,0,1.23.14,1.05,1.05,0,0,0,.55-1.1A72.21,72.21,0,0,0,56.92,30.5h5.73V58a1.08,1.08,0,1,0,2.15,0V30.5h3.84a1.08,1.08,0,0,0,1.08-1.08V15A1.08,1.08,0,0,0,68.64,13.93ZM54.84,2.51a3.74,3.74,0,0,1,3-.08A3.68,3.68,0,0,1,60,4.59l1.72,4.62a3.73,3.73,0,0,1-2.51,4.91L42,18.84V13.67c3.85-2.36,13.45-7.22,15.84-3.85a1.07,1.07,0,1,0,1.75-1.24C57.78,6,53.89,5.85,48.07,8.2a51.75,51.75,0,0,0-6,3v-.79a4.11,4.11,0,0,0-.33-1.62Zm-23,5.91h6.12a2,2,0,0,1,2,2v8.89a2,2,0,0,1-2,2H31.8a2,2,0,0,1-2-2V10.38A2,2,0,0,1,31.8,8.42ZM30,28.35a57,57,0,0,1,3.36-5h3a57,57,0,0,1,3.36,5ZM8.22,12.22a3.72,3.72,0,0,1-.17-3L9.77,4.59a3.68,3.68,0,0,1,2.09-2.16,3.74,3.74,0,0,1,3,.08L28,8.76a4.11,4.11,0,0,0-.33,1.62v.85a51.2,51.2,0,0,0-6.15-3C15.72,5.85,11.83,6,10,8.58a1.08,1.08,0,0,0,1.76,1.24c2.41-3.4,12.16,1.58,15.94,3.91v5.11L10.56,14.12A3.71,3.71,0,0,1,8.22,12.22Zm20,9a4.13,4.13,0,0,0,2.6,2.05A59.82,59.82,0,0,0,20.65,46.82a57.41,57.41,0,0,1-3.19-5.23,1.09,1.09,0,0,0-.68-.53,1.13,1.13,0,0,0-.86.14A63.11,63.11,0,0,0,10.68,45,70.37,70.37,0,0,1,21.2,19.29ZM7.07,30.5H12.8A72.21,72.21,0,0,0,8.07,47.61a1.05,1.05,0,0,0,.55,1.1,1.09,1.09,0,0,0,1.23-.14,59.93,59.93,0,0,1,6.29-4.92,58.42,58.42,0,0,0,4.28,6.54,1.1,1.1,0,0,0,.86.43.84.84,0,0,0,.27,0,1,1,0,0,0,.79-.88A57.79,57.79,0,0,1,28.4,31.16V67.52H7.07Zm23.49,37v-37h8.6v37ZM53.79,41.2a1.1,1.1,0,0,0-.85-.14,1.07,1.07,0,0,0-.68.53,59.75,59.75,0,0,1-3.19,5.23A59.82,59.82,0,0,0,39,23.25a4.13,4.13,0,0,0,2.6-2.05l7-1.92A70.48,70.48,0,0,1,59,45,61.62,61.62,0,0,0,53.79,41.2ZM67.57,28.35H56a73.64,73.64,0,0,0-5.29-9.67l9-2.48.36-.12h7.48Z"/></g></g></svg>